<svg width="114" height="106" viewBox="0 0 114 106" fill="none" xmlns="http://www.w3.org/2000/svg">
<g filter="url(#filter0_d)">
<path d="M93.2042 6.70007C91.1253 4.34475 87.2976 4.13804 84.9636 6.28664L9.9548 75.3362C7.62077 77.4848 7.84533 81.0084 10.4039 82.9221C33.5231 100.205 67.5605 98.9395 89.0839 79.1291C110.604 59.3157 111.979 27.9825 93.2042 6.70007Z" fill="#BC1834"/>
<path d="M91.0381 1.95333C88.9061 -0.462206 84.9806 -0.674205 82.5868 1.52933L5.66025 72.3443C3.26655 74.5478 3.49685 78.1615 6.12085 80.1241C29.8311 97.8487 64.7387 96.551 86.8125 76.2342C108.883 55.9142 110.292 23.7799 91.0381 1.95333Z" fill="url(#paint0_radial)"/>
<path d="M86.9214 23.0274C92.5497 37.7198 88.9801 54.7281 76.216 66.4781C63.4519 78.2281 44.9757 81.5142 29.0153 76.333C25.5085 75.1927 24.4826 71.0843 27.1136 68.6624L37.8853 58.7465C39.4555 57.301 41.8632 56.9702 43.8207 57.9306C48.2627 60.1084 53.4199 58.634 55.9253 55.0011C59.5543 49.7364 57.9875 51.1016 63.916 47.6453C67.9706 45.2812 69.3943 40.4694 67.1367 36.5698C66.0061 34.6168 66.4737 32.4294 67.9846 31.0385L78.5888 21.2768C81.2197 18.8548 85.6826 19.7992 86.9214 23.0274Z" fill="url(#paint1_radial)"/>
<path d="M20.0783 80.1235C20.1697 80.1919 20.2612 80.26 20.3529 80.3274C23.9896 83.0141 20.3034 88.1988 16.1706 86.2108C12.6589 84.5215 9.28989 82.4921 6.12085 80.1231C3.49685 78.1605 3.26655 74.5469 5.66025 72.3433L82.5868 1.52835C84.9806 -0.675184 88.9061 -0.46318 91.0381 1.95235C92.3777 3.46817 87.7855 5.72072 86.3894 7.0059L17.1711 71.6003C14.7774 73.8038 17.4543 78.1609 20.0783 80.1235Z" fill="url(#paint2_linear)"/>
<g filter="url(#filter1_f)">
<path d="M44.7317 72.2622C45.1882 73.4685 44.5803 74.8164 43.3739 75.2729C42.1676 75.7293 40.8197 75.1214 40.3632 73.9151C39.9068 72.7087 37.6833 69.9548 38.8896 69.4984C40.096 69.042 44.2753 71.0558 44.7317 72.2622Z" fill="#FFDADD"/>
<path d="M44.7317 72.2622C45.1882 73.4685 44.5803 74.8164 43.3739 75.2729C42.1676 75.7293 40.8197 75.1214 40.3632 73.9151C39.9068 72.7087 37.6833 69.9548 38.8896 69.4984C40.096 69.042 44.2753 71.0558 44.7317 72.2622Z" stroke="#F83C3C" stroke-width="0.280236"/>
</g>
<g filter="url(#filter2_f)">
<path d="M64.624 62.8476C65.2542 63.9729 64.8528 65.3961 63.7275 66.0263C62.6021 66.6565 61.1789 66.2551 60.5487 65.1298C59.9185 64.0044 59.4234 58.6681 60.5487 58.0379C61.6741 57.4077 63.9938 61.7222 64.624 62.8476Z" fill="#FFDADD"/>
<path d="M64.624 62.8476C65.2542 63.9729 64.8528 65.3961 63.7275 66.0263C62.6021 66.6565 61.1789 66.2551 60.5487 65.1298C59.9185 64.0044 59.4234 58.6681 60.5487 58.0379C61.6741 57.4077 63.9938 61.7222 64.624 62.8476Z" stroke="#F83C3C" stroke-width="0.280236"/>
</g>
<g opacity="0.7" filter="url(#filter3_f)">
<path d="M50.0322 68.0753C50.9442 68.9873 50.5903 71.8092 49.6783 72.7212C48.7663 73.6332 47.6415 72.29 46.7294 71.378C45.8174 70.466 42.0406 66.4872 42.9527 65.5752C43.8647 64.6632 49.1201 67.1632 50.0322 68.0753Z" fill="#FFDADD"/>
<path d="M50.0322 68.0753C50.9442 68.9873 50.5903 71.8092 49.6783 72.7212C48.7663 73.6332 47.6415 72.29 46.7294 71.378C45.8174 70.466 42.0406 66.4872 42.9527 65.5752C43.8647 64.6632 49.1201 67.1632 50.0322 68.0753Z" stroke="#F83C3C" stroke-width="0.280236"/>
</g>
<g filter="url(#filter4_f)">
<path d="M68.0904 59.8074C68.495 60.7136 68.0884 61.7762 67.1821 62.1808C66.2759 62.5854 64.7955 60.7136 64.3909 59.8074C63.9863 58.9012 62.2236 56.732 63.1298 56.3273C64.036 55.9227 67.6858 58.9012 68.0904 59.8074Z" fill="#FFDADD"/>
<path d="M68.0904 59.8074C68.495 60.7136 68.0884 61.7762 67.1821 62.1808C66.2759 62.5854 64.7955 60.7136 64.3909 59.8074C63.9863 58.9012 62.2236 56.732 63.1298 56.3273C64.036 55.9227 67.6858 58.9012 68.0904 59.8074Z" stroke="#F83C3C" stroke-width="0.215628"/>
</g>
<g opacity="0.61" filter="url(#filter5_f)">
<path d="M78.2468 50.5848C78.7632 51.2269 78.6612 52.1661 78.0191 52.6825C77.3769 53.1988 76.4378 53.0968 75.9214 52.4547C75.4051 51.8125 74.1175 48.7168 74.7597 48.2005C75.4018 47.6841 77.7305 49.9427 78.2468 50.5848Z" fill="#FFDADD"/>
<path d="M78.2468 50.5848C78.7632 51.2269 78.6612 52.1661 78.0191 52.6825C77.3769 53.1988 76.4378 53.0968 75.9214 52.4547C75.4051 51.8125 74.1175 48.7168 74.7597 48.2005C75.4018 47.6841 77.7305 49.9427 78.2468 50.5848Z" stroke="#F83C3C" stroke-width="0.280236"/>
</g>
<g filter="url(#filter6_f)">
<path d="M53.4623 65.2951C54.3743 66.2072 55.4211 67.5469 54.5091 68.459C53.5971 69.371 52.1184 69.371 51.2064 68.459C50.2944 67.5469 45.124 63.2647 46.036 62.3526C46.948 61.4406 52.5503 64.3831 53.4623 65.2951Z" fill="#FFDADD"/>
<path d="M53.4623 65.2951C54.3743 66.2072 55.4211 67.5469 54.5091 68.459C53.5971 69.371 52.1184 69.371 51.2064 68.459C50.2944 67.5469 45.124 63.2647 46.036 62.3526C46.948 61.4406 52.5503 64.3831 53.4623 65.2951Z" stroke="#F83C3C" stroke-width="0.280236"/>
</g>
<g filter="url(#filter7_f)">
<path d="M73.5801 55.3476C74.4921 56.2597 74.4921 57.7384 73.5801 58.6504C72.6681 59.5624 71.1894 59.5624 70.2774 58.6504C69.3653 57.7384 64.46 53.7363 65.372 52.8243C66.284 51.9123 72.6681 54.4356 73.5801 55.3476Z" fill="#FFDADD"/>
<path d="M73.5801 55.3476C74.4921 56.2597 74.4921 57.7384 73.5801 58.6504C72.6681 59.5624 71.1894 59.5624 70.2774 58.6504C69.3653 57.7384 64.46 53.7363 65.372 52.8243C66.284 51.9123 72.6681 54.4356 73.5801 55.3476Z" stroke="#F83C3C" stroke-width="0.280236"/>
</g>
<g filter="url(#filter8_f)">
<path d="M81.3979 36.6216C82.5788 37.1403 83.1156 38.5181 82.5968 39.699C82.0781 40.8799 80.7003 41.4167 79.5194 40.898C78.3385 40.3792 73.4001 37.8024 73.9188 36.6216C74.4375 35.4407 80.217 36.1029 81.3979 36.6216Z" fill="#FFDADD"/>
<path d="M81.3979 36.6216C82.5788 37.1403 83.1156 38.5181 82.5968 39.699C82.0781 40.8799 80.7003 41.4167 79.5194 40.898C78.3385 40.3792 73.4001 37.8024 73.9188 36.6216C74.4375 35.4407 80.217 36.1029 81.3979 36.6216Z" stroke="#F83C3C" stroke-width="0.280236"/>
</g>
<path d="M39.1703 76.3619C40.551 76.8068 42.3262 78.6991 40.8669 78.603C36.8465 78.338 32.8574 77.5816 29.0153 76.3333C25.5085 75.193 24.4826 71.0847 27.1136 68.6627L37.8853 58.7468C39.4555 57.3014 41.8631 56.9705 43.8207 57.931C44.8881 58.4539 45.998 58.7661 47.1024 58.8885C48.1457 59.0038 48.5962 60.1618 47.853 60.846L37.8853 70.6197C35.2937 73.0047 35.4901 75.176 39.1703 76.3619Z" fill="#FFA6AD"/>
<path d="M74.4799 38.5326C76.7375 42.4322 80.2181 45.2815 76.1635 47.6457C70.235 51.1019 69.7017 46.7193 66.0728 51.984C62.7607 56.7868 60.8157 59.5997 57.5256 58.7096C56.0276 58.3043 55.0619 56.2398 55.9052 55.0301C59.6068 49.721 57.8596 51.1765 63.9158 47.6457C67.9704 45.2815 69.3941 40.4697 67.1365 36.5702C66.0059 34.6172 66.4735 32.4297 67.9844 31.0389L78.5886 21.2772C80.7712 19.268 84.7421 19.133 86.813 22.9931C87.2443 23.7971 87.0433 24.7688 86.3542 25.4032L80.2321 31.0389C78.7212 32.4297 73.3493 36.5797 74.4799 38.5326Z" fill="#FFDADD"/>
</g>
<defs>
<filter id="filter0_d" x="0.356932" y="0" width="112.974" height="105.929" filterUnits="userSpaceOnUse" color-interpolation-filters="sRGB">
<feFlood flood-opacity="0" result="BackgroundImageFix"/>
<feColorMatrix in="SourceAlpha" type="matrix" values="0 0 0 0 0 0 0 0 0 0 0 0 0 0 0 0 0 0 127 0" result="hardAlpha"/>
<feOffset dx="1.68142" dy="5.60472"/>
<feGaussianBlur stdDeviation="2.66224"/>
<feComposite in2="hardAlpha" operator="out"/>
<feColorMatrix type="matrix" values="0 0 0 0 0 0 0 0 0 0 0 0 0 0 0 0 0 0 0.25 0"/>
<feBlend mode="normal" in2="BackgroundImageFix" result="effect1_dropShadow"/>
<feBlend mode="normal" in="SourceGraphic" in2="effect1_dropShadow" result="shape"/>
</filter>
<filter id="filter1_f" x="37.835" y="68.7315" width="7.74946" height="7.39357" filterUnits="userSpaceOnUse" color-interpolation-filters="sRGB">
<feFlood flood-opacity="0" result="BackgroundImageFix"/>
<feBlend mode="normal" in="SourceGraphic" in2="BackgroundImageFix" result="shape"/>
<feGaussianBlur stdDeviation="0.280236" result="effect1_foregroundBlur"/>
</filter>
<filter id="filter2_f" x="59.1768" y="57.275" width="6.4456" height="9.75033" filterUnits="userSpaceOnUse" color-interpolation-filters="sRGB">
<feFlood flood-opacity="0" result="BackgroundImageFix"/>
<feBlend mode="normal" in="SourceGraphic" in2="BackgroundImageFix" result="shape"/>
<feGaussianBlur stdDeviation="0.280236" result="effect1_foregroundBlur"/>
</filter>
<filter id="filter3_f" x="42.1114" y="64.6778" width="9.15385" height="9.04838" filterUnits="userSpaceOnUse" color-interpolation-filters="sRGB">
<feFlood flood-opacity="0" result="BackgroundImageFix"/>
<feBlend mode="normal" in="SourceGraphic" in2="BackgroundImageFix" result="shape"/>
<feGaussianBlur stdDeviation="0.280236" result="effect1_foregroundBlur"/>
</filter>
<filter id="filter4_f" x="62.3353" y="55.7509" width="6.45098" height="7.02568" filterUnits="userSpaceOnUse" color-interpolation-filters="sRGB">
<feFlood flood-opacity="0" result="BackgroundImageFix"/>
<feBlend mode="normal" in="SourceGraphic" in2="BackgroundImageFix" result="shape"/>
<feGaussianBlur stdDeviation="0.215628" result="effect1_foregroundBlur"/>
</filter>
<filter id="filter5_f" x="73.8839" y="47.4239" width="5.39327" height="6.28851" filterUnits="userSpaceOnUse" color-interpolation-filters="sRGB">
<feFlood flood-opacity="0" result="BackgroundImageFix"/>
<feBlend mode="normal" in="SourceGraphic" in2="BackgroundImageFix" result="shape"/>
<feGaussianBlur stdDeviation="0.280236" result="effect1_foregroundBlur"/>
</filter>
<filter id="filter6_f" x="45.2286" y="61.4791" width="10.3331" height="8.36474" filterUnits="userSpaceOnUse" color-interpolation-filters="sRGB">
<feFlood flood-opacity="0" result="BackgroundImageFix"/>
<feBlend mode="normal" in="SourceGraphic" in2="BackgroundImageFix" result="shape"/>
<feGaussianBlur stdDeviation="0.280236" result="effect1_foregroundBlur"/>
</filter>
<filter id="filter7_f" x="64.5587" y="51.9283" width="10.4057" height="8.10687" filterUnits="userSpaceOnUse" color-interpolation-filters="sRGB">
<feFlood flood-opacity="0" result="BackgroundImageFix"/>
<feBlend mode="normal" in="SourceGraphic" in2="BackgroundImageFix" result="shape"/>
<feGaussianBlur stdDeviation="0.280236" result="effect1_foregroundBlur"/>
</filter>
<filter id="filter8_f" x="73.1798" y="35.2608" width="10.3151" height="6.53537" filterUnits="userSpaceOnUse" color-interpolation-filters="sRGB">
<feFlood flood-opacity="0" result="BackgroundImageFix"/>
<feBlend mode="normal" in="SourceGraphic" in2="BackgroundImageFix" result="shape"/>
<feGaussianBlur stdDeviation="0.280236" result="effect1_foregroundBlur"/>
</filter>
<radialGradient id="paint0_radial" cx="0" cy="0" r="1" gradientUnits="userSpaceOnUse" gradientTransform="translate(58.5059 50.5832) rotate(95.8) scale(42.1435 45.7807)">
<stop stop-color="#FF6371"/>
<stop offset="1" stop-color="#F94051"/>
</radialGradient>
<radialGradient id="paint1_radial" cx="0" cy="0" r="1" gradientUnits="userSpaceOnUse" gradientTransform="translate(67.8945 55.7668) rotate(148.113) scale(35.8094 14.917)">
<stop stop-color="#FFBABF"/>
<stop offset="1" stop-color="#FF5A67"/>
</radialGradient>
<linearGradient id="paint2_linear" x1="79.9439" y1="8.82743" x2="17.1711" y2="78.7463" gradientUnits="userSpaceOnUse">
<stop stop-color="#FF8C95"/>
<stop offset="1" stop-color="#FF8C95" stop-opacity="0.29"/>
</linearGradient>
</defs>
</svg>
