<svg xmlns="http://www.w3.org/2000/svg" width="708" height="159" fill="none" viewBox="0 0 708 159"><path stroke="url(#paint0_linear)" stroke-width="7" d="M4.24121 79.5473L4.24121 41.6973C4.24121 37.8314 7.37522 34.6973 11.2412 34.6973V34.6973C15.1072 34.6973 18.2412 37.8313 18.2412 41.6973V79.5473V132.607C18.2412 136.473 21.3752 139.607 25.2412 139.607V139.607C29.1072 139.607 32.2412 136.473 32.2412 132.607V79.5473V26.4873C32.2412 22.6213 35.3752 19.4873 39.2412 19.4873V19.4873C43.1072 19.4873 46.2412 22.6213 46.2412 26.4873V79.5473V125.197C46.2412 129.063 49.3752 132.197 53.2412 132.197V132.197C57.1072 132.197 60.2412 129.063 60.2412 125.197V79.5473V33.8973C60.2412 30.0313 63.3752 26.8973 67.2412 26.8973V26.8973C71.1072 26.8973 74.2412 30.0313 74.2412 33.8973V79.5473V111.937C74.2412 115.803 77.3752 118.937 81.2412 118.937V118.937C85.1072 118.937 88.2412 115.803 88.2412 111.937V79.5473V47.1573C88.2412 43.2913 91.3752 40.1573 95.2412 40.1573V40.1573C99.1072 40.1573 102.241 43.2913 102.241 47.1573V79.5473V118.177C102.241 122.043 105.375 125.177 109.241 125.177V125.177C113.107 125.177 116.241 122.043 116.241 118.177V79.5473V40.9173C116.241 37.0513 119.375 33.9173 123.241 33.9173V33.9173C127.107 33.9173 130.241 37.0513 130.241 40.9173V79.5473V140.017C130.241 143.883 133.375 147.017 137.241 147.017V147.017C141.107 147.017 144.241 143.883 144.241 140.017V79.5473V19.0773C144.241 15.2113 147.375 12.0773 151.241 12.0773V12.0773C155.107 12.0773 158.241 15.2113 158.241 19.0773V79.5473V126.367C158.241 130.233 161.375 133.367 165.241 133.367V133.367C169.107 133.367 172.241 130.233 172.241 126.367V79.5473V32.7273C172.241 28.8614 175.375 25.7273 179.241 25.7273V25.7273C183.107 25.7273 186.241 28.8613 186.241 32.7273V79.5473V138.847C186.241 142.713 189.375 145.847 193.241 145.847V145.847C197.107 145.847 200.241 142.713 200.241 138.847V79.5473V20.2473C200.241 16.3813 203.375 13.2473 207.241 13.2473V13.2473C211.107 13.2473 214.241 16.3813 214.241 20.2473V79.5473V144.307C214.241 148.173 217.375 151.307 221.241 151.307V151.307C225.107 151.307 228.241 148.173 228.241 144.307V79.5473V14.7873C228.241 10.9213 231.375 7.78734 235.241 7.78734V7.78734C239.107 7.78734 242.241 10.9213 242.241 14.7873V79.5473V131.827C242.241 135.693 245.375 138.827 249.241 138.827V138.827C253.107 138.827 256.241 135.693 256.241 131.827V79.5473V27.2673C256.241 23.4013 259.375 20.2673 263.241 20.2673V20.2673C267.107 20.2673 270.241 23.4013 270.241 27.2673V79.5473V117.787C270.241 121.653 273.375 124.787 277.241 124.787V124.787C281.107 124.787 284.241 121.653 284.241 117.787V79.5473V41.3073C284.241 37.4413 287.375 34.3073 291.241 34.3073V34.3073C295.107 34.3073 298.241 37.4413 298.241 41.3073V79.5473V147.037C298.241 150.903 301.375 154.037 305.241 154.037V154.037C309.107 154.037 312.241 150.903 312.241 147.037V79.5473V12.0573C312.241 8.19135 315.375 5.05734 319.241 5.05734V5.05734C323.107 5.05734 326.241 8.19135 326.241 12.0573V79.5473V146.647C326.241 150.513 329.375 153.647 333.241 153.647V153.647C337.107 153.647 340.241 150.513 340.241 146.647V79.5473V12.4473C340.241 8.58134 343.375 5.44734 347.241 5.44734V5.44734C351.107 5.44734 354.241 8.58135 354.241 12.4473V79.5473V133.387C354.241 137.253 357.375 140.387 361.241 140.387V140.387C365.107 140.387 368.241 137.253 368.241 133.387V79.5473V25.7073C368.241 21.8413 371.375 18.7073 375.241 18.7073V18.7073C379.107 18.7073 382.241 21.8413 382.241 25.7073V79.5473V139.237C382.241 143.103 385.375 146.237 389.241 146.237V146.237C393.107 146.237 396.241 143.103 396.241 139.237V79.5473V19.8573C396.241 15.9914 399.375 12.8573 403.241 12.8573V12.8573C407.107 12.8573 410.241 15.9913 410.241 19.8573V79.5473V147.817C410.241 151.683 413.375 154.817 417.241 154.817V154.817C421.107 154.817 424.241 151.683 424.241 147.817V79.5473V11.2773C424.241 7.41135 427.375 4.27734 431.241 4.27734V4.27734C435.107 4.27734 438.241 7.41135 438.241 11.2773V79.5473V140.797C438.241 144.663 441.375 147.797 445.241 147.797V147.797C449.107 147.797 452.241 144.663 452.241 140.797V79.5473V18.2973C452.241 14.4313 455.375 11.2973 459.241 11.2973V11.2973C463.107 11.2973 466.241 14.4313 466.241 18.2973V79.5473V116.227C466.241 120.093 469.375 123.227 473.241 123.227V123.227C477.107 123.227 480.241 120.093 480.241 116.227V79.5473V42.8673C480.241 39.0013 483.375 35.8673 487.241 35.8673V35.8673C491.107 35.8673 494.241 39.0013 494.241 42.8673V79.5473V134.167C494.241 138.033 497.375 141.167 501.241 141.167V141.167C505.107 141.167 508.241 138.033 508.241 134.167V79.5473V24.9273C508.241 21.0613 511.375 17.9273 515.241 17.9273V17.9273C519.107 17.9273 522.241 21.0613 522.241 24.9273V79.5473V131.827C522.241 135.693 525.375 138.827 529.241 138.827V138.827C533.107 138.827 536.241 135.693 536.241 131.827V79.5473V27.2673C536.241 23.4013 539.375 20.2673 543.241 20.2673V20.2673C547.107 20.2673 550.241 23.4013 550.241 27.2673V79.5473V143.527C550.241 147.393 553.375 150.527 557.241 150.527V150.527C561.107 150.527 564.241 147.393 564.241 143.527V79.5473V15.5673C564.241 11.7013 567.375 8.56734 571.241 8.56734V8.56734C575.107 8.56734 578.241 11.7013 578.241 15.5673V79.5473V133.387C578.241 137.253 581.375 140.387 585.241 140.387V140.387C589.107 140.387 592.241 137.253 592.241 133.387V79.5473V25.7073C592.241 21.8413 595.375 18.7073 599.241 18.7073V18.7073C603.107 18.7073 606.241 21.8413 606.241 25.7073V79.5473V111.547C606.241 115.413 609.375 118.547 613.241 118.547V118.547C617.107 118.547 620.241 115.413 620.241 111.547V79.5473V47.5473C620.241 43.6813 623.375 40.5473 627.241 40.5473V40.5473C631.107 40.5473 634.241 43.6813 634.241 47.5473V79.5473V131.827C634.241 135.693 637.375 138.827 641.241 138.827V138.827C645.107 138.827 648.241 135.693 648.241 131.827V79.5473V27.2673C648.241 23.4013 651.375 20.2673 655.241 20.2673V20.2673C659.107 20.2673 662.241 23.4013 662.241 27.2673V79.5473V133.777C662.241 137.643 665.375 140.777 669.241 140.777V140.777C673.107 140.777 676.241 137.643 676.241 133.777V79.5473V25.3173C676.241 21.4513 679.375 18.3173 683.241 18.3173V18.3173C687.107 18.3173 690.241 21.4513 690.241 25.3173V79.5473V118.957C690.241 122.823 693.375 125.957 697.241 125.957V125.957C701.107 125.957 704.241 122.823 704.241 118.957V79.5473" opacity=".27"/><defs><linearGradient id="paint0_linear" x1="354.241" x2="354.241" y1="4.277" y2="154.817" gradientUnits="userSpaceOnUse"><stop stop-color="#fff"/><stop offset="1" stop-color="#fff" stop-opacity="0"/></linearGradient></defs></svg>