<svg width="1366" height="560" viewBox="0 0 1366 560" fill="none" xmlns="http://www.w3.org/2000/svg">
<path opacity="0.27" fill-rule="evenodd" clip-rule="evenodd" d="M752.06 21.2505C745.235 21.2505 739.702 26.7832 739.702 33.6081V525.746C739.702 544.307 724.655 559.354 706.094 559.354C687.533 559.354 672.486 544.307 672.486 525.746V101.895C672.486 95.0705 666.953 89.5378 660.128 89.5378C653.303 89.5378 647.771 95.0705 647.771 101.895V457.459C647.771 476.02 632.724 491.067 614.163 491.067C595.601 491.067 580.554 476.02 580.554 457.459V86.8722C580.554 80.0473 575.022 74.5146 568.197 74.5146C561.372 74.5146 555.839 80.0473 555.839 86.8722V472.482C555.839 491.043 540.792 506.09 522.231 506.09C503.67 506.09 488.623 491.043 488.623 472.482V110.09C488.623 103.265 483.09 97.7323 476.265 97.7323C469.44 97.7323 463.908 103.265 463.908 110.09V449.264C463.908 467.826 448.861 482.872 430.3 482.872C411.738 482.872 396.692 467.826 396.692 449.264V111.456C396.692 104.631 391.159 99.098 384.334 99.098C377.509 99.098 371.976 104.631 371.976 111.456V447.899C371.976 466.46 356.929 481.507 338.368 481.507C319.807 481.507 304.76 466.46 304.76 447.899V99.1639C304.76 92.339 299.227 86.8063 292.402 86.8063C285.578 86.8063 280.045 92.339 280.045 99.1639V460.19C280.045 478.751 264.998 493.798 246.437 493.798C227.875 493.798 212.829 478.751 212.829 460.19V58.1916C212.829 51.3666 207.296 45.834 200.471 45.834C193.646 45.834 188.113 51.3666 188.113 58.1916V501.163C188.113 519.724 173.067 534.771 154.505 534.771C135.944 534.771 120.897 519.724 120.897 501.163V161.988C120.897 155.163 115.364 149.631 108.54 149.631C101.715 149.631 96.182 155.163 96.182 161.988V397.366C96.182 415.927 81.1351 430.974 62.5739 430.974C44.0126 430.974 28.9657 415.927 28.9657 397.366V108.724C28.9657 101.899 23.433 96.3665 16.6081 96.3665C9.78323 96.3665 4.25053 101.899 4.25053 108.724V279.677H-17V108.724C-17 90.1629 -1.95315 75.116 16.6081 75.116C35.1694 75.116 50.2163 90.1629 50.2163 108.724V397.366C50.2163 404.191 55.7489 409.724 62.5739 409.724C69.3988 409.724 74.9315 404.191 74.9315 397.366V161.988C74.9315 143.427 89.9783 128.38 108.54 128.38C127.101 128.38 142.148 143.427 142.148 161.988V501.163C142.148 507.987 147.68 513.52 154.505 513.52C161.33 513.52 166.863 507.987 166.863 501.163V58.1916C166.863 39.6303 181.91 24.5834 200.471 24.5834C219.032 24.5834 234.079 39.6303 234.079 58.1916V460.19C234.079 467.015 239.612 472.548 246.437 472.548C253.262 472.548 258.794 467.015 258.794 460.19V99.1639C258.794 80.6027 273.841 65.5558 292.402 65.5558C310.964 65.5558 326.011 80.6026 326.011 99.1639V447.899C326.011 454.723 331.543 460.256 338.368 460.256C345.193 460.256 350.726 454.723 350.726 447.899V111.456C350.726 92.8944 365.773 77.8475 384.334 77.8475C402.895 77.8475 417.942 92.8943 417.942 111.456V449.264C417.942 456.089 423.475 461.622 430.3 461.622C437.125 461.622 442.657 456.089 442.657 449.264V110.09C442.657 91.5286 457.704 76.4817 476.265 76.4817C494.827 76.4817 509.874 91.5286 509.874 110.09V472.482C509.874 479.307 515.406 484.84 522.231 484.84C529.056 484.84 534.589 479.307 534.589 472.482V86.8722C534.589 68.3109 549.636 53.2641 568.197 53.2641C586.758 53.2641 601.805 68.3109 601.805 86.8722V457.459C601.805 464.284 607.338 469.816 614.163 469.816C620.987 469.816 626.52 464.284 626.52 457.459V101.895C626.52 83.3342 641.567 68.2873 660.128 68.2873C678.69 68.2873 693.736 83.3341 693.736 101.895V525.746C693.736 532.571 699.269 538.104 706.094 538.104C712.919 538.104 718.452 532.571 718.452 525.746V33.6081C718.452 15.0469 733.498 0 752.06 0C770.621 0 785.668 15.0469 785.668 33.6081V501.163C785.668 507.987 791.2 513.52 798.025 513.52C804.85 513.52 810.383 507.987 810.383 501.163V58.1916C810.383 39.6303 825.43 24.5834 843.991 24.5834C862.552 24.5834 877.599 39.6303 877.599 58.1916V492.968C877.599 499.793 883.132 505.326 889.957 505.326C896.782 505.326 902.314 499.793 902.314 492.968V66.386C902.314 47.8248 917.361 32.7779 935.923 32.7779C954.484 32.7779 969.531 47.8248 969.531 66.386V406.926C969.531 413.751 975.063 419.284 981.888 419.284C988.713 419.284 994.246 413.751 994.246 406.926V152.428C994.246 133.867 1009.29 118.82 1027.85 118.82C1046.42 118.82 1061.46 133.867 1061.46 152.428V523.015C1061.46 529.839 1066.99 535.372 1073.82 535.372C1080.64 535.372 1086.18 529.839 1086.18 523.015V36.3396C1086.18 17.7783 1101.22 2.7315 1119.79 2.7315C1138.35 2.7315 1153.39 17.7784 1153.39 36.3396V498.431C1153.39 505.256 1158.93 510.789 1165.75 510.789C1172.58 510.789 1178.11 505.256 1178.11 498.431V60.923C1178.11 42.3618 1193.16 27.3149 1211.72 27.3149C1230.28 27.3149 1245.33 42.3618 1245.33 60.923V523.015C1245.33 529.839 1250.86 535.372 1257.68 535.372C1264.51 535.372 1270.04 529.839 1270.04 523.015V36.3396C1270.04 17.7783 1285.09 2.7315 1303.65 2.7315C1322.21 2.7315 1337.26 17.7784 1337.26 36.3396V525.746C1337.26 532.571 1342.79 538.104 1349.61 538.104C1356.44 538.104 1361.97 532.571 1361.97 525.746V279.677H1383.22V525.746C1383.22 544.307 1368.18 559.354 1349.61 559.354C1331.05 559.354 1316.01 544.307 1316.01 525.746V36.3396C1316.01 29.5147 1310.47 23.982 1303.65 23.982C1296.82 23.982 1291.29 29.5147 1291.29 36.3396V523.015C1291.29 541.576 1276.24 556.623 1257.68 556.623C1239.12 556.623 1224.07 541.576 1224.07 523.015V60.923C1224.07 54.0981 1218.54 48.5654 1211.72 48.5654C1204.89 48.5654 1199.36 54.0981 1199.36 60.923V498.431C1199.36 516.992 1184.31 532.039 1165.75 532.039C1147.19 532.039 1132.14 516.992 1132.14 498.431V36.3396C1132.14 29.5147 1126.61 23.982 1119.79 23.982C1112.96 23.982 1107.43 29.5147 1107.43 36.3396V523.015C1107.43 541.576 1092.38 556.623 1073.82 556.623C1055.26 556.623 1040.21 541.576 1040.21 523.015V152.428C1040.21 145.603 1034.68 140.07 1027.85 140.07C1021.03 140.07 1015.5 145.603 1015.5 152.428V406.926C1015.5 425.487 1000.45 440.534 981.888 440.534C963.327 440.534 948.28 425.487 948.28 406.926V66.386C948.28 59.5611 942.748 54.0284 935.923 54.0284C929.098 54.0284 923.565 59.5611 923.565 66.386V492.968C923.565 511.529 908.518 526.576 889.957 526.576C871.396 526.576 856.349 511.529 856.349 492.968V58.1916C856.349 51.3666 850.816 45.834 843.991 45.834C837.166 45.834 831.633 51.3666 831.633 58.1916V501.163C831.633 519.724 816.587 534.771 798.025 534.771C779.464 534.771 764.417 519.724 764.417 501.163V33.6081C764.417 26.7832 758.885 21.2505 752.06 21.2505Z" fill="url(#paint0_linear)"/>
<defs>
<linearGradient id="paint0_linear" x1="683.111" y1="10.6253" x2="683.111" y2="548.729" gradientUnits="userSpaceOnUse">
<stop stop-color="white"/>
<stop offset="1" stop-color="white" stop-opacity="0"/>
</linearGradient>
</defs>
</svg>
