<svg width="62" height="62" viewBox="0 0 62 62" fill="none" xmlns="http://www.w3.org/2000/svg">
<path d="M31 0C29.6292 0 28.52 1.10922 28.52 2.48C28.52 3.16297 29.14 4.39328 29.76 5.46375V8.68H32.24V5.46375C32.86 4.39328 33.48 3.16297 33.48 2.48C33.48 1.10922 32.3708 0 31 0ZM10.85 8.37C10.2155 8.37 9.55188 8.58313 9.0675 9.0675C8.09875 10.0363 8.09875 11.625 9.0675 12.5938C9.55188 13.0781 10.8936 13.5141 12.09 13.8338L14.3375 16.0813L16.0813 14.3375L13.8338 12.09C13.5141 10.8936 13.0781 9.55188 12.5938 9.0675C12.1094 8.58313 11.4845 8.37 10.85 8.37ZM51.15 8.37C50.5155 8.37 49.8906 8.58313 49.4063 9.0675C48.9219 9.55188 48.4859 10.8936 48.1663 12.09L45.9188 14.3375L47.6625 16.0813L49.9488 13.8338C51.1355 13.5189 52.453 13.0733 52.9325 12.5938C53.9013 11.625 53.9013 10.0363 52.9325 9.0675C52.4481 8.58313 51.7845 8.37 51.15 8.37ZM31 9.92C19.375 9.92 9.92 19.375 9.92 31C9.92 42.625 19.375 52.08 31 52.08C42.625 52.08 52.08 42.625 52.08 31C52.08 19.375 42.625 9.92 31 9.92ZM29.4888 16.1975C29.5808 16.1878 29.668 16.2072 29.76 16.1975V21.08H32.24V16.1975C35.4175 16.4591 38.3141 17.7088 40.61 19.6463L37.1225 23.095L38.905 24.8775L42.3538 21.39C44.3058 23.6811 45.5361 26.5777 45.8025 29.76H40.92V32.24H45.8025C45.5409 35.4175 44.2961 38.3141 42.3538 40.61L38.905 37.1225L37.1225 38.905L40.61 42.3538C38.3141 44.2961 35.4175 45.5409 32.24 45.8025V40.92H29.76V45.8025C26.5825 45.5409 23.6859 44.2961 21.39 42.3538L24.8775 38.905L23.095 37.1225L19.6463 40.61C17.7039 38.3141 16.4591 35.4175 16.1975 32.24H21.08V29.76H16.1975C16.4591 26.5777 17.6991 23.6859 19.6463 21.39L23.095 24.8775L24.8775 23.095L21.39 19.6463C23.623 17.7572 26.413 16.5075 29.4888 16.1975ZM31 22.32C26.2144 22.32 22.32 26.2144 22.32 31C22.32 35.7856 26.2144 39.68 31 39.68C35.7856 39.68 39.68 35.7856 39.68 31C39.68 26.2144 35.7856 22.32 31 22.32ZM2.48 28.52C1.10922 28.52 0 29.6292 0 31C0 32.3708 1.10922 33.48 2.48 33.48C3.16297 33.48 4.39328 32.86 5.46375 32.24H8.68V29.76H5.46375C4.39328 29.14 3.16297 28.52 2.48 28.52ZM59.52 28.52C58.837 28.52 57.6067 29.14 56.5363 29.76H53.32V32.24H56.5363C57.6067 32.86 58.837 33.48 59.52 33.48C60.8908 33.48 62 32.3708 62 31C62 29.6292 60.8908 28.52 59.52 28.52ZM14.3375 45.9188L12.0513 48.1663C10.8645 48.4811 9.54703 48.9267 9.0675 49.4063C8.09875 50.375 8.09875 51.9638 9.0675 52.9325C10.0363 53.9013 11.625 53.9013 12.5938 52.9325C13.0781 52.4481 13.5141 51.1016 13.8338 49.91L16.0813 47.6625L14.3375 45.9188ZM47.6625 45.9188L45.9188 47.6625L48.1663 49.9488C48.4811 51.1355 48.9267 52.453 49.4063 52.9325C50.375 53.9013 51.9638 53.9013 52.9325 52.9325C53.9013 51.9638 53.9013 50.375 52.9325 49.4063C52.453 48.9267 51.1355 48.4811 49.9488 48.1663L47.6625 45.9188ZM29.76 53.32V56.5363C29.14 57.6067 28.52 58.837 28.52 59.52C28.52 60.8908 29.6292 62 31 62C32.3708 62 33.48 60.8908 33.48 59.52C33.48 58.837 32.86 57.6067 32.24 56.5363V53.32H29.76Z" fill="#303C42"/>
</svg>
