<svg width="72" height="72" viewBox="0 0 72 72" fill="none" xmlns="http://www.w3.org/2000/svg">
<path d="M32.7273 0C31.8228 0 31.0909 0.731889 31.0909 1.63636V13.5511C31.0909 16.7184 33.2674 19.4126 36.2621 19.956C44.2537 21.407 50.5994 27.7527 52.0504 35.7443C52.5937 38.739 55.2816 40.9091 58.4489 40.9091H70.3636C71.2681 40.9091 72 40.1772 72 39.2727C72 17.6181 54.3819 0 32.7273 0ZM25.8366 7.28693C10.8649 10.4973 0 23.9478 0 39.2727C0 57.3191 14.6809 72 32.7273 72C48.0522 72 61.5027 61.1351 64.7131 46.1634C64.8169 45.6792 64.6987 45.1742 64.3871 44.7891C64.0771 44.4055 63.6088 44.1818 63.1151 44.1818H58.4489C53.698 44.1818 49.6518 40.8739 48.8288 36.3196C47.6175 29.6623 42.3329 24.3809 35.674 23.1712C31.1229 22.3482 27.8182 18.302 27.8182 13.5511V8.88494C27.8182 8.39116 27.5945 7.92294 27.2109 7.61293C26.8242 7.29972 26.3192 7.17827 25.8366 7.28693ZM38.8509 10.5788C39.0612 10.5439 39.2851 10.5505 39.5092 10.6044C50.2622 13.1484 58.8532 21.7393 61.3956 32.4908C61.6033 33.3713 61.06 34.2502 60.1811 34.4595C60.0533 34.4883 59.9222 34.5043 59.7976 34.5043C59.0561 34.5043 58.3849 33.9977 58.206 33.245C55.9464 23.6873 48.3143 16.0504 38.755 13.7876C37.8761 13.5799 37.3311 12.6994 37.5405 11.8189C37.6963 11.1585 38.2198 10.6837 38.8509 10.5788ZM18 19.6364C20.707 19.6364 22.9091 21.8384 22.9091 24.5455C22.9091 27.2525 20.707 29.4545 18 29.4545C15.293 29.4545 13.0909 27.2525 13.0909 24.5455C13.0909 21.8384 15.293 19.6364 18 19.6364ZM32.7273 29.4545C38.1413 29.4545 42.5455 33.8587 42.5455 39.2727C42.5455 44.6868 38.1413 49.0909 32.7273 49.0909C27.3132 49.0909 22.9091 44.6868 22.9091 39.2727C22.9091 33.8587 27.3132 29.4545 32.7273 29.4545ZM18 49.0909C20.707 49.0909 22.9091 51.293 22.9091 54C22.9091 56.707 20.707 58.9091 18 58.9091C15.293 58.9091 13.0909 56.707 13.0909 54C13.0909 51.293 15.293 49.0909 18 49.0909ZM47.4545 49.0909C50.1616 49.0909 52.3636 51.293 52.3636 54C52.3636 56.707 50.1616 58.9091 47.4545 58.9091C44.7475 58.9091 42.5455 56.707 42.5455 54C42.5455 51.293 44.7475 49.0909 47.4545 49.0909Z" fill="#303C42"/>
</svg>
