<svg xmlns="http://www.w3.org/2000/svg" width="62" height="62" fill="none" viewBox="0 0 62 62"><path fill="#303C42" d="M28.4165 56.8337C24.1479 56.8337 20.6665 53.3522 20.6665 49.0837H25.8332C25.8332 50.5065 26.9937 51.667 28.4165 51.667C29.8394 51.667 30.9998 50.5065 30.9998 49.0837V46.4701C24.5516 46.2682 12.9165 44.7546 12.9165 33.5837C12.9165 24.0778 22.0389 20.9294 22.4325 20.7982L30.1825 18.2148C30.4448 18.1442 30.7274 18.0736 30.9998 17.9928V12.917C30.9998 5.92383 35.5207 5.16699 37.4582 5.16699C39.87 5.16699 43.9165 6.17611 43.9165 12.917C43.9165 17.2966 39.7287 20.0615 36.1665 21.6156V25.8337C42.5845 25.8337 49.0832 29.3857 49.0832 36.167C48.9823 42.0501 44.2091 45.7637 36.1665 46.3994V49.0837C36.1665 53.3522 32.6851 56.8337 28.4165 56.8337ZM30.9998 23.3815L24.0672 25.7025C23.8351 25.7832 18.0832 27.8418 18.0832 33.5837C18.0832 38.5687 21.9784 40.93 30.9998 41.2832V32.3525C29.4256 33.3112 28.4165 34.6735 28.4165 36.167H23.2498C23.2498 31.9388 26.4386 28.2959 30.9998 26.7015V23.3815ZM36.1665 31.0003V41.2126C39.5369 40.8897 43.856 39.7695 43.9165 36.1266C43.9165 32.0801 38.8508 31.0003 36.1665 31.0003ZM37.4582 10.3337C36.7114 10.3337 36.1665 10.3337 36.1665 12.917V15.7728C37.6802 14.8646 38.7498 13.8555 38.7498 12.917C38.7498 10.3337 38.2856 10.3337 37.4582 10.3337Z"/></svg>