<svg xmlns="http://www.w3.org/2000/svg" width="190" height="190" fill="none" viewBox="0 0 190 190"><g filter="url(#filter0_d)"><path fill="url(#paint0_linear)" fill-rule="evenodd" d="M107.928 52.71a7.71 7.71 0 00-7.71-7.71H89.47a7.71 7.71 0 00-7.71 7.71v21.652a7.71 7.71 0 01-7.71 7.71H52.71a7.71 7.71 0 00-7.71 7.71v10.748a7.71 7.71 0 007.71 7.71h21.34a7.71 7.71 0 017.71 7.71v21.34a7.71 7.71 0 007.71 7.71h10.748a7.71 7.71 0 007.71-7.71v-21.34a7.71 7.71 0 017.711-7.71h21.651a7.71 7.71 0 007.71-7.71V89.782a7.71 7.71 0 00-7.71-7.71h-21.651a7.71 7.71 0 01-7.711-7.71V52.71z" clip-rule="evenodd"/></g><defs><linearGradient id="paint0_linear" x1="35.5" x2="275" y1="100.5" y2="95" gradientUnits="userSpaceOnUse"><stop stop-color="#C147EC"/><stop offset="1" stop-color="#0028FB"/></linearGradient><filter id="filter0_d" width="190" height="190" x="0" y="0" color-interpolation-filters="sRGB" filterUnits="userSpaceOnUse"><feFlood flood-opacity="0" result="BackgroundImageFix"/><feColorMatrix in="SourceAlpha" result="hardAlpha" values="0 0 0 0 0 0 0 0 0 0 0 0 0 0 0 0 0 0 127 0"/><feOffset/><feGaussianBlur stdDeviation="22.5"/><feComposite in2="hardAlpha" operator="out"/><feColorMatrix values="0 0 0 0 0 0 0 0 0 0 0 0 0 0 0 0 0 0 0.45 0"/><feBlend in2="BackgroundImageFix" result="effect1_dropShadow"/><feBlend in="SourceGraphic" in2="effect1_dropShadow" result="shape"/></filter></defs></svg>