<svg width="74" height="48" viewBox="0 0 74 48" fill="none" xmlns="http://www.w3.org/2000/svg">
<rect x="2.15576" y="2.1084" width="69.8444" height="44.3333" rx="4.35556" stroke="#303C42" stroke-width="2.48889"/>
<mask id="path-2-inside-1" fill="white">
<path d="M5.11111 5.97808C5.11111 4.94715 5.94685 4.11142 6.97778 4.11142H67.0222C68.0532 4.11142 68.8889 4.94715 68.8889 5.97808V43.0003C68.8889 43.8594 68.1924 44.5559 67.3333 44.5559V44.5559C66.4742 44.5559 65.7778 43.8594 65.7778 43.0003V13.9114C65.7778 13.4989 65.6137 13.1033 65.3221 12.8116L60.1887 7.67826C59.8969 7.38659 59.5014 7.22253 59.0889 7.22253H14.9111C14.4986 7.22253 14.1031 7.38659 13.8113 7.67826L8.67795 12.8116C8.38629 13.1033 8.22222 13.4989 8.22222 13.9114V42.7779C8.22222 43.637 7.52578 44.3335 6.66667 44.3335V44.3335C5.80756 44.3335 5.11111 43.637 5.11111 42.7779V5.97808ZM15.0088 10.8804C15.3588 10.5303 15.8336 10.3336 16.3287 10.3336H57.6713C58.1664 10.3336 58.6412 10.5303 58.9912 10.8804L62.1199 14.0091C62.47 14.3592 62.6667 14.8339 62.6667 15.329V42.6892C62.6667 43.7201 61.8309 44.5559 60.8 44.5559H59.9596C59.2975 44.5559 58.6849 44.2051 58.3498 43.6341L52.0372 32.8795C51.758 32.4035 51.2476 32.1114 50.6959 32.1114H23.3044C22.7527 32.1114 22.242 32.4036 21.9628 32.8795L15.6502 43.6341C15.3151 44.2051 14.7025 44.5559 14.0404 44.5559H13.2C12.1691 44.5559 11.3333 43.7201 11.3333 42.6892V15.329C11.3333 14.8339 11.53 14.3592 11.8801 14.0091L15.0088 10.8804ZM24.5556 16.5559C21.5921 16.5559 19.1111 19.0368 19.1111 22.0003C19.1111 24.9639 21.5921 27.4447 24.5556 27.4447H49.4444C52.4081 27.4447 54.8889 24.9639 54.8889 22.0003C54.8889 19.0368 52.4081 16.5559 49.4444 16.5559H24.5556ZM29.9961 22.0003C29.9961 20.8815 30.7655 19.667 31.8843 19.667H42.1157C43.2345 19.667 44.0039 20.8815 44.0039 22.0003V22.0003C44.0039 23.1191 43.2345 24.3336 42.1157 24.3336H31.8843C30.7655 24.3336 29.9961 23.1191 29.9961 22.0003V22.0003ZM49.4444 19.667C52.453 19.667 52.453 24.3336 49.4444 24.3336C46.4358 24.3336 46.4358 19.667 49.4444 19.667ZM24.5556 19.7438C25.7222 19.7438 26.8889 20.496 26.8889 22.0003C26.8889 25.0089 22.2222 25.0089 22.2222 22.0003C22.2222 20.496 23.3889 19.7438 24.5556 19.7438ZM23.6542 36.1443C23.9894 35.5733 24.6019 35.2225 25.264 35.2225H48.7363C49.3984 35.2225 50.011 35.5733 50.3461 36.1443L53.633 41.7443C54.3634 42.9887 53.4661 44.5559 52.0232 44.5559H21.9769C20.534 44.5559 19.6367 42.9887 20.3671 41.7443L23.6542 36.1443Z"/>
</mask>
<path d="M5.11111 5.97808C5.11111 4.94715 5.94685 4.11142 6.97778 4.11142H67.0222C68.0532 4.11142 68.8889 4.94715 68.8889 5.97808V43.0003C68.8889 43.8594 68.1924 44.5559 67.3333 44.5559V44.5559C66.4742 44.5559 65.7778 43.8594 65.7778 43.0003V13.9114C65.7778 13.4989 65.6137 13.1033 65.3221 12.8116L60.1887 7.67826C59.8969 7.38659 59.5014 7.22253 59.0889 7.22253H14.9111C14.4986 7.22253 14.1031 7.38659 13.8113 7.67826L8.67795 12.8116C8.38629 13.1033 8.22222 13.4989 8.22222 13.9114V42.7779C8.22222 43.637 7.52578 44.3335 6.66667 44.3335V44.3335C5.80756 44.3335 5.11111 43.637 5.11111 42.7779V5.97808ZM15.0088 10.8804C15.3588 10.5303 15.8336 10.3336 16.3287 10.3336H57.6713C58.1664 10.3336 58.6412 10.5303 58.9912 10.8804L62.1199 14.0091C62.47 14.3592 62.6667 14.8339 62.6667 15.329V42.6892C62.6667 43.7201 61.8309 44.5559 60.8 44.5559H59.9596C59.2975 44.5559 58.6849 44.2051 58.3498 43.6341L52.0372 32.8795C51.758 32.4035 51.2476 32.1114 50.6959 32.1114H23.3044C22.7527 32.1114 22.242 32.4036 21.9628 32.8795L15.6502 43.6341C15.3151 44.2051 14.7025 44.5559 14.0404 44.5559H13.2C12.1691 44.5559 11.3333 43.7201 11.3333 42.6892V15.329C11.3333 14.8339 11.53 14.3592 11.8801 14.0091L15.0088 10.8804ZM24.5556 16.5559C21.5921 16.5559 19.1111 19.0368 19.1111 22.0003C19.1111 24.9639 21.5921 27.4447 24.5556 27.4447H49.4444C52.4081 27.4447 54.8889 24.9639 54.8889 22.0003C54.8889 19.0368 52.4081 16.5559 49.4444 16.5559H24.5556ZM29.9961 22.0003C29.9961 20.8815 30.7655 19.667 31.8843 19.667H42.1157C43.2345 19.667 44.0039 20.8815 44.0039 22.0003V22.0003C44.0039 23.1191 43.2345 24.3336 42.1157 24.3336H31.8843C30.7655 24.3336 29.9961 23.1191 29.9961 22.0003V22.0003ZM49.4444 19.667C52.453 19.667 52.453 24.3336 49.4444 24.3336C46.4358 24.3336 46.4358 19.667 49.4444 19.667ZM24.5556 19.7438C25.7222 19.7438 26.8889 20.496 26.8889 22.0003C26.8889 25.0089 22.2222 25.0089 22.2222 22.0003C22.2222 20.496 23.3889 19.7438 24.5556 19.7438ZM23.6542 36.1443C23.9894 35.5733 24.6019 35.2225 25.264 35.2225H48.7363C49.3984 35.2225 50.011 35.5733 50.3461 36.1443L53.633 41.7443C54.3634 42.9887 53.4661 44.5559 52.0232 44.5559H21.9769C20.534 44.5559 19.6367 42.9887 20.3671 41.7443L23.6542 36.1443Z" fill="#303C42"/>
<path d="M44.7854 1L44.7858 -8.02222H44.7854V1ZM50.9924 1.0003L50.992 10.0225H50.9924V1.0003ZM44.7854 -8.02222H3.55556V10.0222H44.7854V-8.02222ZM3.55556 -8.02222C-2.28567 -8.02222 -7.02222 -3.287 -7.02222 2.55556H11.0222C11.0222 6.67985 7.67883 10.0222 3.55556 10.0222V-8.02222ZM-7.02222 2.55556V46.1111H11.0222V2.55556H-7.02222ZM-7.02222 46.1111C-7.02222 51.9537 -2.28565 56.6889 3.55556 56.6889V38.6444C7.67881 38.6444 11.0222 41.9868 11.0222 46.1111H-7.02222ZM3.55556 56.6889H9.77778V38.6444H3.55556V56.6889ZM9.77778 56.6889H16V38.6444H9.77778V56.6889ZM16 56.6889H58V38.6444H16V56.6889ZM58 56.6889H58.003V38.6444H58V56.6889ZM58.003 56.6889H64.2222V38.6444H58.003V56.6889ZM64.2222 56.6889H70.4445V38.6444H64.2222V56.6889ZM70.4445 56.6889C76.2857 56.6889 81.0222 51.9536 81.0222 46.1111H62.9778C62.9778 41.9869 66.3212 38.6444 70.4445 38.6444V56.6889ZM81.0222 46.1111V2.55556H62.9778V46.1111H81.0222ZM81.0222 2.55556C81.0222 -3.28851 76.284 -8.02192 70.4445 -8.02192V10.0225C66.3228 10.0225 62.9778 6.68166 62.9778 2.55556H81.0222ZM70.4445 -8.02192H50.9924V10.0225H70.4445V-8.02192ZM44.7849 10.0222L50.992 10.0225L50.9928 -8.02192L44.7858 -8.02222L44.7849 10.0222ZM65.3221 12.8116L78.0814 0.0522411L78.0814 0.0522394L65.3221 12.8116ZM60.1887 7.67826L72.9481 -5.08109L72.9447 -5.08449L60.1887 7.67826ZM13.8113 7.67826L1.05534 -5.08449L1.05194 -5.08109L13.8113 7.67826ZM8.67795 12.8116L21.4373 25.5709L21.4373 25.5709L8.67795 12.8116ZM52.0372 32.8795L36.473 42.0095L36.4754 42.0136L52.0372 32.8795ZM21.9628 32.8795L37.5246 42.0136L37.5257 42.0117L21.9628 32.8795ZM20.3671 41.7443L4.80545 32.6099L20.3671 41.7443ZM50.3461 36.1443L34.7842 45.2783L50.3461 36.1443ZM23.6542 36.1443L39.2158 45.2786L23.6542 36.1443ZM58.3498 43.6341L73.9116 34.5L58.3498 43.6341ZM62.1199 14.0091L49.3606 26.7684L62.1199 14.0091ZM58.9912 10.8804L71.7506 -1.87898L58.9912 10.8804ZM11.8801 14.0091L-0.879282 1.24974L11.8801 14.0091ZM15.6502 43.6341L0.0884365 34.5L15.6502 43.6341ZM6.97778 22.1559H67.0222V-13.933H6.97778V22.1559ZM50.8444 5.97808V43.0003H86.9333V5.97808H50.8444ZM83.8222 43.0003V13.9114H47.7333V43.0003H83.8222ZM83.8222 13.9114C83.8222 8.70799 81.7534 3.72422 78.0814 0.0522411L52.5627 25.5709C49.4741 22.4823 47.7333 18.2898 47.7333 13.9114H83.8222ZM78.0814 0.0522394L72.9481 -5.08109L47.4294 20.4376L52.5627 25.5709L78.0814 0.0522394ZM72.9447 -5.08449C69.276 -8.7512 64.2951 -10.8219 59.0889 -10.8219V25.267C54.7077 25.267 50.5178 23.5244 47.4328 20.441L72.9447 -5.08449ZM59.0889 -10.8219H14.9111V25.267H59.0889V-10.8219ZM14.9111 -10.8219C9.70486 -10.8219 4.72401 -8.7512 1.05534 -5.08449L26.5672 20.441C23.4822 23.5244 19.2923 25.267 14.9111 25.267V-10.8219ZM1.05194 -5.08109L-4.0814 0.0522417L21.4373 25.5709L26.5706 20.4376L1.05194 -5.08109ZM-4.0814 0.0522411C-7.75331 3.72416 -9.82222 8.70791 -9.82222 13.9114H26.2667C26.2667 18.2899 24.5259 22.4824 21.4373 25.5709L-4.0814 0.0522411ZM-9.82222 13.9114V42.7779H26.2667V13.9114H-9.82222ZM23.1556 42.7779V5.97808H-12.9333V42.7779H23.1556ZM16.3287 28.3781H57.6713V-7.71081H16.3287V28.3781ZM46.2319 23.6397L49.3606 26.7684L74.8793 1.24974L71.7506 -1.87898L46.2319 23.6397ZM44.6222 15.329V42.6892H80.7111V15.329H44.6222ZM60.8 26.5114H59.9596V62.6003H60.8V26.5114ZM73.9116 34.5L67.599 23.7453L36.4754 42.0136L42.788 52.7682L73.9116 34.5ZM67.6015 23.7495C64.0802 17.7466 57.6443 14.067 50.6959 14.067V50.1559C44.851 50.1559 39.4359 47.0604 36.473 42.0095L67.6015 23.7495ZM50.6959 14.067H23.3044V50.1559H50.6959V14.067ZM23.3044 14.067C16.3571 14.067 9.92154 17.7456 6.39984 23.7473L37.5257 42.0117C34.5624 47.0616 29.1482 50.1559 23.3044 50.1559V14.067ZM6.40096 23.7453L0.0884365 34.5L31.212 52.7682L37.5246 42.0136L6.40096 23.7453ZM14.0404 26.5114H13.2V62.6003H14.0404V26.5114ZM29.3778 42.6892V15.329H-6.71111V42.6892H29.3778ZM24.6394 26.7684L27.7681 23.6397L2.24943 -1.87898L-0.879282 1.24974L24.6394 26.7684ZM24.5556 -1.48858C11.6264 -1.48858 1.06667 9.07115 1.06667 22.0003H37.1556C37.1556 29.0025 31.5577 34.6003 24.5556 34.6003V-1.48858ZM1.06667 22.0003C1.06667 34.93 11.6267 45.4892 24.5556 45.4892V9.40031C31.5574 9.40031 37.1556 14.9979 37.1556 22.0003H1.06667ZM24.5556 45.4892H49.4444V9.40031H24.5556V45.4892ZM49.4444 45.4892C62.3738 45.4892 72.9333 34.9296 72.9333 22.0003H36.8444C36.8444 14.9983 42.4424 9.40031 49.4444 9.40031V45.4892ZM72.9333 22.0003C72.9333 9.07149 62.3741 -1.48858 49.4444 -1.48858V34.6003C42.4421 34.6003 36.8444 29.0021 36.8444 22.0003H72.9333ZM49.4444 -1.48858H24.5556V34.6003H49.4444V-1.48858ZM31.8843 37.7114H42.1157V1.62253H31.8843V37.7114ZM42.1157 6.28919H31.8843V42.3781H42.1157V6.28919ZM49.4444 37.7114C45.085 37.7114 40.5997 35.8193 37.453 32.1587C34.6296 28.8741 33.6565 25.1017 33.6565 22.0003C33.6565 18.8989 34.6296 15.1266 37.453 11.8419C40.5997 8.18134 45.085 6.28919 49.4444 6.28919V42.3781C55.3082 42.3781 60.9217 39.9026 64.8205 35.367C68.3961 31.2074 69.7453 26.2684 69.7453 22.0003C69.7453 17.7322 68.3961 12.7932 64.8205 8.6336C60.9217 4.09801 55.3082 1.62253 49.4444 1.62253V37.7114ZM49.4444 6.28919C53.8039 6.28919 58.2892 8.18134 61.4358 11.8419C64.2593 15.1266 65.2324 18.8989 65.2324 22.0003C65.2324 25.1017 64.2593 28.8741 61.4358 32.1587C58.2892 35.8193 53.8039 37.7114 49.4444 37.7114V1.62253C43.5807 1.62253 37.9672 4.09801 34.0684 8.6336C30.4928 12.7932 29.1436 17.7322 29.1436 22.0003C29.1436 26.2684 30.4928 31.2074 34.0684 35.367C37.9672 39.9026 43.5807 42.3781 49.4444 42.3781V6.28919ZM24.5556 37.7883C21.454 37.7883 17.6817 36.8151 14.3971 33.9916C10.7366 30.845 8.84445 26.3597 8.84445 22.0003H44.9333C44.9333 16.1366 42.4579 10.5231 37.9223 6.6243C33.7628 3.04867 28.8238 1.69939 24.5556 1.69939V37.7883ZM8.84445 22.0003C8.84445 17.6409 10.7366 13.1556 14.3972 10.0089C17.6818 7.18544 21.4541 6.21231 24.5556 6.21231C27.657 6.21231 31.4293 7.18544 34.7139 10.0089C38.3745 13.1556 40.2667 17.6409 40.2667 22.0003H4.17778C4.17778 27.864 6.65326 33.4776 11.1889 37.3764C15.3485 40.952 20.2875 42.3012 24.5556 42.3012C28.8236 42.3012 33.7626 40.952 37.9223 37.3764C42.4579 33.4776 44.9333 27.864 44.9333 22.0003H8.84445ZM40.2667 22.0003C40.2667 26.3597 38.3745 30.845 34.714 33.9916C31.4294 36.8151 27.6571 37.7883 24.5556 37.7883V1.69939C20.2874 1.69939 15.3484 3.04867 11.1888 6.62429C6.65324 10.5231 4.17778 16.1366 4.17778 22.0003H40.2667ZM25.264 53.267H48.7363V17.1781H25.264V53.267ZM34.7842 45.2783L38.0711 50.8783L69.1949 32.6103L65.908 27.0103L34.7842 45.2783ZM52.0232 26.5114H21.9769V62.6003H52.0232V26.5114ZM35.9288 50.8786L39.2158 45.2786L8.09253 27.0099L4.80545 32.6099L35.9288 50.8786ZM21.9769 26.5114C34.4824 26.5114 42.2592 40.0939 35.9288 50.8786L4.80545 32.6099C-2.98582 45.8834 6.58557 62.6003 21.9769 62.6003V26.5114ZM38.0711 50.8783C31.741 40.0935 39.5179 26.5114 52.0232 26.5114V62.6003C67.4142 62.6003 76.9858 45.8839 69.1949 32.6103L38.0711 50.8783ZM48.7363 53.267C42.9979 53.267 37.6889 50.2271 34.7842 45.2783L65.908 27.0103C62.333 20.9194 55.7989 17.1781 48.7363 17.1781V53.267ZM25.9594 22.0003C25.9594 18.7179 26.996 15.4937 29.0372 12.7686C31.1601 9.93449 35.5715 6.28919 42.1157 6.28919V42.3781C49.7787 42.3781 55.1342 38.1255 57.9215 34.4044C60.627 30.7924 62.0483 26.4015 62.0483 22.0003H25.9594ZM42.1157 37.7114C35.5715 37.7114 31.1601 34.0661 29.0372 31.232C26.996 28.5069 25.9594 25.2827 25.9594 22.0003H62.0483C62.0483 17.5991 60.627 13.2082 57.9215 9.59622C55.1342 5.87511 49.7787 1.62253 42.1157 1.62253V37.7114ZM31.8843 1.62253C24.2213 1.62253 18.8658 5.87511 16.0785 9.59622C13.373 13.2082 11.9517 17.5991 11.9517 22.0003H48.0406C48.0406 25.2827 47.004 28.5069 44.9628 31.232C42.8399 34.0661 38.4285 37.7114 31.8843 37.7114V1.62253ZM25.264 17.1781C18.2016 17.1781 11.6676 20.9192 8.09253 27.0099L39.2158 45.2786C36.3111 50.2273 31.0022 53.267 25.264 53.267V17.1781ZM59.9596 26.5114C65.6979 26.5114 71.0068 29.5512 73.9116 34.5L42.788 52.7682C46.363 58.8591 52.8971 62.6003 59.9596 62.6003V26.5114ZM44.6222 42.6892C44.6222 33.7545 51.8653 26.5114 60.8 26.5114V62.6003C71.7966 62.6003 80.7111 53.6858 80.7111 42.6892H44.6222ZM49.3606 26.7684C46.3267 23.7345 44.6222 19.6196 44.6222 15.329H80.7111C80.7111 10.0483 78.6133 4.9838 74.8793 1.24974L49.3606 26.7684ZM57.6713 28.3781C53.3807 28.3781 49.2658 26.6736 46.2319 23.6397L71.7506 -1.87898C68.0165 -5.61303 62.952 -7.71081 57.6713 -7.71081V28.3781ZM16.3287 -7.71081C11.048 -7.71081 5.98349 -5.61304 2.24943 -1.87898L27.7681 23.6397C24.7342 26.6736 20.6193 28.3781 16.3287 28.3781V-7.71081ZM67.3333 26.5114C76.4399 26.5114 83.8222 33.8937 83.8222 43.0003H47.7333C47.7333 53.8251 56.5086 62.6003 67.3333 62.6003V26.5114ZM13.2 26.5114C22.1347 26.5114 29.3778 33.7544 29.3778 42.6892H-6.71111C-6.71111 53.6858 2.20342 62.6003 13.2 62.6003V26.5114ZM67.0222 22.1559C58.0875 22.1559 50.8444 14.9128 50.8444 5.97808H86.9333C86.9333 -5.0185 78.0188 -13.933 67.0222 -13.933V22.1559ZM31.8843 6.28919C38.4285 6.28919 42.8399 9.93449 44.9628 12.7686C47.004 15.4937 48.0406 18.7179 48.0406 22.0003H11.9517C11.9517 26.4015 13.373 30.7924 16.0785 34.4044C18.8658 38.1255 24.2213 42.3781 31.8843 42.3781V6.28919ZM-9.82222 42.7779C-9.82222 33.6714 -2.43992 26.2891 6.66667 26.2891V62.3779C17.4915 62.3779 26.2667 53.6027 26.2667 42.7779H-9.82222ZM6.66667 26.2891C15.7732 26.2891 23.1556 33.6714 23.1556 42.7779H-12.9333C-12.9333 53.6027 -4.15812 62.3779 6.66667 62.3779V26.2891ZM29.3778 15.329C29.3778 19.6196 27.6733 23.7345 24.6394 26.7684L-0.879282 1.24974C-4.61333 4.98379 -6.71111 10.0483 -6.71111 15.329H29.3778ZM50.8444 43.0003C50.8444 33.8937 58.2268 26.5114 67.3333 26.5114V62.6003C78.1581 62.6003 86.9333 53.8251 86.9333 43.0003H50.8444ZM0.0884365 34.5C2.99318 29.5512 8.30209 26.5114 14.0404 26.5114V62.6003C21.1029 62.6003 27.637 58.8591 31.212 52.7682L0.0884365 34.5ZM6.97778 -13.933C-4.01883 -13.933 -12.9333 -5.01851 -12.9333 5.97808H23.1556C23.1556 14.9128 15.9125 22.1559 6.97778 22.1559V-13.933Z" fill="#303C42" mask="url(#path-2-inside-1)"/>
</svg>
