<svg xmlns="http://www.w3.org/2000/svg" width="72" height="60" fill="none" viewBox="0 0 72 60"><path fill="#303C42" d="M57.7363 37.2045C68.2101 32.7078 72 27.3135 72 24C72 20.1035 68.9092 18 66 18C63.709 18 61.7578 18.8551 59.9819 19.9969C59.9828 19.8252 60 19.6729 60 19.5C60 18.6709 59.3291 18 58.5 18H7.5C6.6709 18 6 18.6709 6 19.5C6 34.3033 9.5603 44.8429 16.5348 51H1.5C0.670898 51 0 51.6709 0 52.5C0 56.6353 3.36475 60 7.5 60H58.5C62.6353 60 66 56.6353 66 52.5C66 51.6709 65.3291 51 64.5 51H49.4652C53.2289 47.6772 55.9922 43.0715 57.7363 37.2045ZM66 21C67.1147 21 69 21.6313 69 24C69 25.3486 67.0364 29.4542 58.6306 33.5184C59.256 30.5436 59.6649 27.3041 59.844 23.7863C61.7858 22.2812 63.741 21 66 21ZM13.4458 33.3472C13.2539 32.5415 13.7505 31.7314 14.5562 31.5396C15.3691 31.3579 16.1719 31.8457 16.3638 32.6499C17.9224 39.186 20.7715 43.6714 24.8306 45.9829C25.5498 46.3931 25.8018 47.3086 25.3916 48.0293C25.1147 48.5142 24.6079 48.7866 24.0864 48.7866C23.8345 48.7866 23.5796 48.7236 23.3452 48.5903C18.5361 45.8511 15.2051 40.7227 13.4458 33.3472Z"/><path fill="#303C42" d="M31.5 13.5C31.5 14.3291 32.1709 15 33 15C33.8291 15 34.5 14.3291 34.5 13.5C34.5 12.6562 34.8252 12.2959 35.5605 11.5605C36.3794 10.7417 37.5 9.62109 37.5 7.5C37.5 5.37891 36.3794 4.2583 35.5605 3.43945C34.8252 2.7041 34.5 2.34375 34.5 1.5C34.5 0.670898 33.8291 0 33 0C32.1709 0 31.5 0.670898 31.5 1.5C31.5 3.62109 32.6206 4.7417 33.4395 5.56055C34.1748 6.2959 34.5 6.65625 34.5 7.5C34.5 8.34375 34.1748 8.7041 33.4395 9.43945C32.6206 10.2583 31.5 11.3789 31.5 13.5Z"/><path fill="#303C42" d="M18 13.5C18 14.3291 18.6709 15 19.5 15C20.3291 15 21 14.3291 21 13.5C21 12.6562 21.3252 12.2959 22.0605 11.5605C22.8794 10.7417 24 9.62109 24 7.5C24 5.37891 22.8794 4.2583 22.0605 3.43945C21.3252 2.7041 21 2.34375 21 1.5C21 0.670898 20.3291 0 19.5 0C18.6709 0 18 0.670898 18 1.5C18 3.62109 19.1206 4.7417 19.9395 5.56055C20.6748 6.2959 21 6.65625 21 7.5C21 8.34375 20.6748 8.7041 19.9395 9.43945C19.1206 10.2583 18 11.3789 18 13.5Z"/><path fill="#303C42" d="M45 13.5C45 14.3291 45.6709 15 46.5 15C47.3291 15 48 14.3291 48 13.5C48 12.6562 48.3252 12.2959 49.0605 11.5605C49.8794 10.7417 51 9.62109 51 7.5C51 5.37891 49.8794 4.2583 49.0605 3.43945C48.3252 2.7041 48 2.34375 48 1.5C48 0.670898 47.3291 0 46.5 0C45.6709 0 45 0.670898 45 1.5C45 3.62109 46.1206 4.7417 46.9395 5.56055C47.6748 6.2959 48 6.65625 48 7.5C48 8.34375 47.6748 8.7041 46.9395 9.43945C46.1206 10.2583 45 11.3789 45 13.5Z"/></svg>