<svg width="46" height="62" viewBox="0 0 46 62" fill="none" xmlns="http://www.w3.org/2000/svg">
<path d="M27.2429 25.75L27.5964 25.3964L29.5386 23.4543C30.1721 22.8208 31.0029 22.5007 31.834 22.5C32.6641 22.4994 33.4956 22.8155 34.1301 23.45L35.7497 25.0695L27.2429 25.75ZM27.2429 25.75L27.5964 26.1036M27.2429 25.75L27.5964 26.1036M27.5964 26.1036L33.0964 31.6036L33.45 31.9571M27.5964 26.1036L33.45 31.9571M33.45 31.9571L33.8036 31.6036M33.45 31.9571L33.8036 31.6036M33.8036 31.6036L35.7457 29.6614M33.8036 31.6036L35.7457 29.6614M9.3 48.7125C9.29986 48.8683 9.33042 49.0227 9.38995 49.1667C9.44958 49.311 9.53709 49.4421 9.64749 49.5525C9.75788 49.6629 9.88897 49.7504 10.0333 49.8101C10.1776 49.8697 10.3322 49.9002 10.4883 49.9L10.4915 49.9C10.6004 49.8991 10.7086 49.8833 10.8129 49.853L10.8259 49.853L10.9075 49.8242L14.2419 48.6469L14.9899 48.3828L14.4289 47.8218L11.3782 44.7711L10.817 44.2099L10.5531 44.9583L9.38369 48.2737C9.32828 48.4133 9.29986 48.5622 9.3 48.7125ZM9.3 48.7125C9.3 48.7122 9.3 48.712 9.3 48.7117L9.8 48.7125L9.3 48.7133C9.3 48.713 9.3 48.7128 9.3 48.7125ZM35.7457 29.6614C37.013 28.3941 37.0227 26.3403 35.75 25.0699L35.7457 29.6614ZM25.5536 28.1464L25.2 27.7929L24.8464 28.1464L12.5101 40.4828L12.0476 40.9453L12.6153 41.2703L14.1985 42.1766L14.8257 44.0581L14.9047 44.2953L15.1419 44.3743L17.0234 45.0015L17.9297 46.5847L18.2547 47.1524L18.7172 46.6899L31.0536 34.3536L31.4071 34L31.0536 33.6464L25.5536 28.1464ZM23 0.5C19.2729 0.5 16.1778 3.43432 15.9177 7.1H12H7.6C3.70492 7.1 0.5 10.3049 0.5 14.2V53.8C0.5 57.6951 3.70492 60.9 7.6 60.9H38.4C42.2951 60.9 45.5 57.6951 45.5 53.8V14.2C45.5 10.3049 42.2951 7.1 38.4 7.1H34H30.0823C29.8222 3.43432 26.7271 0.5 23 0.5ZM23 5.9C23.9649 5.9 24.7 6.63506 24.7 7.6C24.7 8.56494 23.9649 9.3 23 9.3C22.0351 9.3 21.3 8.56494 21.3 7.6C21.3 6.63506 22.0351 5.9 23 5.9ZM7.6 12.5H11.5252C11.7755 14.9721 13.8617 16.9 16.4 16.9H29.6C32.1383 16.9 34.2245 14.9721 34.4748 12.5H38.4C39.3669 12.5 40.1 13.2331 40.1 14.2V53.8C40.1 54.7669 39.3669 55.5 38.4 55.5H7.6C6.63308 55.5 5.9 54.7669 5.9 53.8V14.2C5.9 13.2331 6.63308 12.5 7.6 12.5Z" fill="#303C42" stroke="#303C42"/>
</svg>
