<svg xmlns="http://www.w3.org/2000/svg" width="350" height="104" fill="none" viewBox="0 0 350 104">
	<g filter="url(#filter0_d)">
		<g>
			<path fill="#BC1834" d="M73.094 10.344c-1.348-1.527-3.83-1.661-5.343-.268l-48.63 44.766c-1.513 1.393-1.367 3.677.292 4.918C34.4 70.964 56.468 70.144 70.423 57.3c13.951-12.845 14.842-33.159 2.67-46.956z" />
			<path fill="url(#paint0_radial)" d="M71.69 7.267c-1.382-1.566-3.927-1.704-5.48-.275l-49.872 45.91c-1.552 1.429-1.403 3.772.298 5.044 15.372 11.491 38.003 10.65 52.314-2.522C83.26 42.251 84.173 21.417 71.69 7.267z" />
			<path fill="url(#paint1_radial)" d="M69.02 20.93c3.65 9.525 1.335 20.551-6.94 28.17-8.275 7.617-20.254 9.747-30.601 6.388-2.274-.74-2.939-3.403-1.233-4.973l6.984-6.428c1.018-.938 2.578-1.152 3.848-.53 2.88 1.412 6.223.457 7.847-1.899 2.353-3.413 1.337-2.528 5.18-4.769 2.63-1.532 3.552-4.652 2.089-7.18-.733-1.266-.43-2.684.55-3.586l6.874-6.329c1.706-1.57 4.6-.958 5.402 1.135z" />
			<path fill="url(#paint2_linear)" d="M25.685 57.946l.178.132c2.358 1.741-.032 5.103-2.711 3.814a39.407 39.407 0 01-6.515-3.947c-1.702-1.272-1.851-3.615-.3-5.044l49.874-45.91c1.552-1.429 4.097-1.291 5.479.275.868.982-2.109 2.443-3.014 3.276L23.8 52.42c-1.551 1.428.184 4.253 1.885 5.526z" />
			<g filter="url(#filter2_f)">
				<path fill="#FFDADD" d="M41.669 52.849a1.514 1.514 0 11-2.833 1.071c-.296-.782-1.737-2.567-.955-2.863.782-.296 3.492 1.01 3.788 1.791z" />
				<path stroke="#F83C3C" stroke-width=".182" d="M41.669 52.849a1.514 1.514 0 11-2.833 1.071c-.296-.782-1.737-2.567-.955-2.863.782-.296 3.492 1.01 3.788 1.791z" />
			</g>
			<g filter="url(#filter3_f)">
				<path fill="#FFDADD" d="M54.565 46.745a1.514 1.514 0 11-2.642 1.48c-.409-.73-.73-4.19 0-4.598.73-.409 2.233 2.389 2.642 3.118z" />
				<path stroke="#F83C3C" stroke-width=".182" d="M54.565 46.745a1.514 1.514 0 11-2.642 1.48c-.409-.73-.73-4.19 0-4.598.73-.409 2.233 2.389 2.642 3.118z" />
			</g>
			<g filter="url(#filter4_f)" opacity=".7">
				<path fill="#FFDADD" d="M45.105 50.134c.591.592.362 2.421-.23 3.012-.59.592-1.32-.28-1.911-.87-.591-.592-3.04-3.171-2.449-3.763.591-.59 3.999 1.03 4.59 1.621z" />
				<path stroke="#F83C3C" stroke-width=".182" d="M45.105 50.134c.591.592.362 2.421-.23 3.012-.59.592-1.32-.28-1.911-.87-.591-.592-3.04-3.171-2.449-3.763.591-.59 3.999 1.03 4.59 1.621z" />
			</g>
			<g filter="url(#filter5_f)">
				<path fill="#FFDADD" d="M56.812 44.774a1.165 1.165 0 01-.588 1.539c-.588.262-1.548-.951-1.81-1.539-.262-.587-1.405-1.994-.818-2.256.588-.262 2.954 1.669 3.216 2.256z" />
				<path stroke="#F83C3C" stroke-width=".14" d="M56.812 44.774a1.165 1.165 0 01-.588 1.539c-.588.262-1.548-.951-1.81-1.539-.262-.587-1.405-1.994-.818-2.256.588-.262 2.954 1.669 3.216 2.256z" />
			</g>
			<g filter="url(#filter6_f)" opacity=".61">
				<path fill="#FFDADD" d="M63.397 38.795a.967.967 0 01-1.508 1.213c-.334-.417-1.17-2.424-.753-2.758.416-.335 1.926 1.13 2.261 1.545z" />
				<path stroke="#F83C3C" stroke-width=".182" d="M63.397 38.795a.967.967 0 01-1.508 1.213c-.334-.417-1.17-2.424-.753-2.758.416-.335 1.926 1.13 2.261 1.545z" />
			</g>
			<g filter="url(#filter7_f)">
				<path fill="#FFDADD" d="M47.328 48.332c.592.591 1.27 1.46.679 2.051a1.514 1.514 0 01-2.141 0c-.591-.591-3.944-3.367-3.352-3.959.591-.59 4.223 1.317 4.814 1.908z" />
				<path stroke="#F83C3C" stroke-width=".182" d="M47.328 48.332c.592.591 1.27 1.46.679 2.051a1.514 1.514 0 01-2.141 0c-.591-.591-3.944-3.367-3.352-3.959.591-.59 4.223 1.317 4.814 1.908z" />
			</g>
			<g filter="url(#filter8_f)">
				<path fill="#FFDADD" d="M60.371 41.883a1.514 1.514 0 01-2.141 2.141c-.591-.59-3.771-3.185-3.18-3.777.591-.591 4.73 1.045 5.321 1.636z" />
				<path stroke="#F83C3C" stroke-width=".182" d="M60.371 41.883a1.514 1.514 0 01-2.141 2.141c-.591-.59-3.771-3.185-3.18-3.777.591-.591 4.73 1.045 5.321 1.636z" />
			</g>
			<g filter="url(#filter9_f)">
				<path fill="#FFDADD" d="M65.44 29.742a1.514 1.514 0 11-1.218 2.773c-.766-.336-3.967-2.007-3.63-2.773.335-.765 4.082-.336 4.848 0z" />
				<path stroke="#F83C3C" stroke-width=".182" d="M65.44 29.742a1.514 1.514 0 11-1.218 2.773c-.766-.336-3.967-2.007-3.63-2.773.335-.765 4.082-.336 4.848 0z" />
			</g>
			<path fill="#FFA6AD" d="M38.063 55.507c.895.288 2.046 1.515 1.1 1.453a31.62 31.62 0 01-7.684-1.472c-2.274-.74-2.939-3.403-1.233-4.973l6.984-6.428c1.018-.938 2.578-1.152 3.848-.53a6.444 6.444 0 002.127.621c.677.075.969.826.487 1.27l-6.462 6.336c-1.68 1.546-1.553 2.954.833 3.723z" />
			<path fill="#FFDADD" d="M60.955 30.982c1.463 2.528 3.72 4.375 1.091 5.908-3.843 2.24-4.19-.601-6.542 2.812-2.147 3.114-3.408 4.938-5.541 4.36-.971-.262-1.598-1.6-1.05-2.385 2.399-3.442 1.266-2.498 5.193-4.787 2.628-1.533 3.551-4.653 2.088-7.18-.733-1.267-.43-2.685.55-3.587l6.874-6.329c1.415-1.302 3.99-1.39 5.332 1.113.28.521.15 1.151-.297 1.562l-3.97 3.654c-.979.902-4.462 3.592-3.729 4.858z" />
		</g>
		<path fill="#fff" d="M105.823 55.132h-5.976V31.168h-9.005V25.17h23.965v5.997h-8.984v23.964zm16.944-5.474c.223.07.446.118.668.146.223.014.446.021.669.021.557 0 1.093-.077 1.609-.23.515-.153.996-.369 1.441-.648a5.524 5.524 0 002.09-2.424l4.178 4.2a11.05 11.05 0 01-1.838 2.027 11.135 11.135 0 01-2.236 1.525c-.794.418-1.636.732-2.528.94-.877.223-1.783.335-2.716.335-1.574 0-3.057-.293-4.45-.878a11.375 11.375 0 01-3.636-2.444c-1.03-1.045-1.845-2.285-2.444-3.72-.599-1.448-.899-3.036-.899-4.763 0-1.769.3-3.385.899-4.847.599-1.463 1.414-2.71 2.444-3.74a11.26 11.26 0 013.636-2.403 11.615 11.615 0 014.45-.856 11.29 11.29 0 015.265 1.295c.808.418 1.56.933 2.256 1.546.697.6 1.31 1.275 1.839 2.027l-10.697 12.89zm2.925-11.763a3.289 3.289 0 00-.794-.188 7.21 7.21 0 00-.794-.042c-.78 0-1.518.147-2.215.439a5.25 5.25 0 00-1.796 1.212 5.812 5.812 0 00-1.191 1.922c-.293.738-.439 1.574-.439 2.507 0 .21.007.446.021.71.028.265.062.537.104.815.056.265.119.523.188.773.07.251.16.474.272.669l6.644-8.817zm39.112 17.237h-5.683V40.925c0-.39-.077-.76-.23-1.108a2.702 2.702 0 00-.606-.92 2.715 2.715 0 00-.919-.605 2.722 2.722 0 00-1.108-.23c-.39 0-.759.077-1.107.23-.334.14-.634.341-.898.606a3.186 3.186 0 00-.606.92 2.94 2.94 0 00-.209 1.107v14.207h-5.704V40.925c0-.39-.077-.76-.23-1.108a2.702 2.702 0 00-.606-.92 2.706 2.706 0 00-.919-.605 2.717 2.717 0 00-1.107-.23c-.39 0-.759.077-1.108.23-.334.14-.633.341-.898.606a3.186 3.186 0 00-.606.92 2.96 2.96 0 00-.209 1.107v14.207h-5.704V32.755h1.379l1.546 1.714a9.054 9.054 0 012.612-1.547 8.128 8.128 0 012.988-.564c1.044 0 2.061.195 3.05.585 1.003.39 1.88 1.066 2.633 2.027a5.777 5.777 0 011.191-1.212 6.775 6.775 0 011.399-.815 6.749 6.749 0 011.546-.438 8.646 8.646 0 011.567-.147c1.184 0 2.292.223 3.322.669a8.357 8.357 0 012.716 1.839 8.367 8.367 0 011.839 2.716 8.423 8.423 0 01.669 3.343v14.207zm9.924 8.524h-5.746v-30.9h1.379l2.278 2.695a15.13 15.13 0 011.692-1.38c.613-.431 1.247-.8 1.901-1.107a11.14 11.14 0 012.069-.752 8.672 8.672 0 012.152-.271c1.573 0 3.05.285 4.429.856a10.689 10.689 0 013.635 2.382c1.045 1.03 1.867 2.277 2.466 3.74.599 1.448.898 3.057.898 4.826 0 1.839-.299 3.496-.898 4.973-.599 1.462-1.421 2.709-2.466 3.74a10.586 10.586 0 01-3.635 2.34c-1.379.543-2.856.814-4.429.814a6.918 6.918 0 01-1.505-.167 11.645 11.645 0 01-1.462-.438c-.474-.195-.947-.411-1.421-.648-.46-.237-.905-.48-1.337-.732v10.03zm11.428-19.91c0-.948-.153-1.798-.459-2.55-.293-.752-.697-1.386-1.212-1.901a5.198 5.198 0 00-1.818-1.212 5.902 5.902 0 00-2.214-.418c-.78 0-1.519.14-2.215.418a5.245 5.245 0 00-1.797 1.212c-.515.515-.926 1.149-1.233 1.901-.292.752-.438 1.602-.438 2.55 0 .904.146 1.733.438 2.485a5.937 5.937 0 001.233 1.923c.515.529 1.114.94 1.797 1.232a5.661 5.661 0 002.215.439c.78 0 1.518-.146 2.214-.439a5.451 5.451 0 001.818-1.232c.515-.53.919-1.17 1.212-1.923.306-.752.459-1.58.459-2.486zm30.525 0c0 1.67-.299 3.23-.898 4.68a11.834 11.834 0 01-2.445 3.739 11.633 11.633 0 01-3.635 2.486c-1.379.6-2.863.899-4.45.899-1.574 0-3.058-.3-4.451-.899a11.965 11.965 0 01-3.635-2.486 11.815 11.815 0 01-2.444-3.74c-.599-1.448-.899-3.008-.899-4.68 0-1.7.3-3.273.899-4.722.598-1.448 1.413-2.695 2.444-3.74a11.49 11.49 0 013.635-2.486 11.148 11.148 0 014.451-.898c1.587 0 3.071.285 4.45.856a10.55 10.55 0 013.635 2.403c1.031 1.03 1.846 2.277 2.445 3.74.599 1.448.898 3.064.898 4.847zm-5.745 0c0-.92-.154-1.749-.46-2.487a5.667 5.667 0 00-1.212-1.922 5.068 5.068 0 00-1.818-1.233 5.504 5.504 0 00-2.193-.439c-.78 0-1.519.147-2.215.439a5.121 5.121 0 00-1.797 1.233 5.844 5.844 0 00-1.191 1.922c-.292.738-.439 1.567-.439 2.486 0 .864.147 1.665.439 2.403.293.738.69 1.379 1.191 1.922a5.928 5.928 0 001.797 1.295 5.44 5.44 0 002.215.46c.78 0 1.511-.146 2.193-.439a5.451 5.451 0 001.818-1.232c.515-.53.919-1.17 1.212-1.923.306-.752.46-1.58.46-2.486z" />
		<path fill="url(#paint3_linear)" d="M241.46 55.132h-1.379l-2.214-3.071c-.544.487-1.122.947-1.734 1.379-.599.417-1.233.787-1.902 1.107-.668.306-1.358.55-2.068.731a8.438 8.438 0 01-2.131.272 11.37 11.37 0 01-4.45-.878 11.665 11.665 0 01-3.636-2.465c-1.031-1.059-1.845-2.305-2.444-3.74-.599-1.449-.899-3.023-.899-4.722 0-1.685.3-3.252.899-4.7.599-1.45 1.413-2.703 2.444-3.762a11.494 11.494 0 013.636-2.486 11.14 11.14 0 014.45-.898c.501 0 1.017.042 1.546.125a7.439 7.439 0 011.567.418c.515.181.996.425 1.441.731.446.307.822.683 1.129 1.128V23.855h5.745v31.277zm-5.745-11.387c0-.78-.154-1.532-.46-2.256a6.169 6.169 0 00-1.212-1.943 5.811 5.811 0 00-1.817-1.358 4.762 4.762 0 00-2.194-.523c-.78 0-1.518.14-2.215.418a5.264 5.264 0 00-1.797 1.212c-.501.515-.898 1.149-1.191 1.901-.292.752-.438 1.602-.438 2.55a6.414 6.414 0 001.629 4.283 5.776 5.776 0 001.797 1.316c.697.32 1.435.48 2.215.48.78 0 1.511-.167 2.194-.501a6.272 6.272 0 001.817-1.358 6.498 6.498 0 001.212-1.944c.306-.738.46-1.497.46-2.277zm31.736 0c0 1.672-.299 3.232-.898 4.68a11.834 11.834 0 01-2.445 3.74 11.621 11.621 0 01-3.635 2.486c-1.379.6-2.862.899-4.45.899-1.574 0-3.058-.3-4.45-.899a11.97 11.97 0 01-3.636-2.486c-1.031-1.059-1.845-2.305-2.444-3.74-.599-1.448-.899-3.008-.899-4.68 0-1.7.3-3.273.899-4.722.599-1.448 1.413-2.695 2.444-3.74a11.494 11.494 0 013.636-2.486 11.14 11.14 0 014.45-.898c1.588 0 3.071.285 4.45.856a10.54 10.54 0 013.635 2.403c1.031 1.03 1.846 2.277 2.445 3.74.599 1.448.898 3.064.898 4.847zm-5.745 0c0-.92-.154-1.748-.46-2.486a5.652 5.652 0 00-1.212-1.922 5.068 5.068 0 00-1.818-1.233 5.504 5.504 0 00-2.193-.439c-.78 0-1.519.147-2.215.439a5.13 5.13 0 00-1.797 1.233 5.844 5.844 0 00-1.191 1.922c-.292.738-.438 1.567-.438 2.486 0 .864.146 1.665.438 2.403.293.738.69 1.379 1.191 1.922a5.94 5.94 0 001.797 1.295 5.44 5.44 0 002.215.46c.78 0 1.511-.146 2.193-.439a5.451 5.451 0 001.818-1.232c.516-.53.919-1.17 1.212-1.923.306-.752.46-1.58.46-2.486zm14.604 11.387h-5.704V32.755h1.379l1.88 2.654a9.817 9.817 0 013.134-1.922 9.86 9.86 0 013.636-.69h5.035v5.683h-5.035a4.321 4.321 0 00-3.072 1.254c-.39.39-.696.85-.919 1.379a4.313 4.313 0 00-.334 1.692v12.327zm33.22-11.387c0 1.672-.3 3.232-.899 4.68-.599 1.435-1.413 2.681-2.444 3.74a11.644 11.644 0 01-3.635 2.486c-1.379.6-2.863.899-4.451.899-1.574 0-3.057-.3-4.45-.899a11.953 11.953 0 01-3.635-2.486 11.834 11.834 0 01-2.445-3.74c-.599-1.448-.898-3.008-.898-4.68 0-1.7.299-3.273.898-4.722.599-1.448 1.414-2.695 2.445-3.74a11.479 11.479 0 013.635-2.486 11.143 11.143 0 014.45-.898c1.588 0 3.072.285 4.451.856a10.56 10.56 0 013.635 2.403c1.031 1.03 1.845 2.277 2.444 3.74.599 1.448.899 3.064.899 4.847zm-5.746 0c0-.92-.153-1.748-.459-2.486a5.667 5.667 0 00-1.212-1.922 5.077 5.077 0 00-1.818-1.233 5.51 5.51 0 00-2.194-.439c-.78 0-1.518.147-2.214.439a5.112 5.112 0 00-1.797 1.233 5.812 5.812 0 00-1.191 1.922c-.293.738-.439 1.567-.439 2.486 0 .864.146 1.665.439 2.403a6.112 6.112 0 001.191 1.922 5.916 5.916 0 001.797 1.295c.696.307 1.434.46 2.214.46a5.51 5.51 0 002.194-.439 5.461 5.461 0 001.818-1.232c.515-.53.919-1.17 1.212-1.923.306-.752.459-1.58.459-2.486z" />
	</g>
	<defs>
		<filter id="filter0_d" width="348.147" height="103.083" x=".998" y=".813" color-interpolation-filters="sRGB" filterUnits="userSpaceOnUse">
			<feFlood flood-opacity="0" result="BackgroundImageFix" />
			<feColorMatrix in="SourceAlpha" result="hardAlpha" values="0 0 0 0 0 0 0 0 0 0 0 0 0 0 0 0 0 0 127 0" />
			<feOffset dy="9.076" />
			<feGaussianBlur stdDeviation="7.131" />
			<feComposite in2="hardAlpha" operator="out" />
			<feColorMatrix values="0 0 0 0 0 0 0 0 0 0 0 0 0 0 0 0 0 0 0.57 0" />
			<feBlend in2="BackgroundImageFix" result="effect1_dropShadow" />
			<feBlend in="SourceGraphic" in2="effect1_dropShadow" result="shape" />
		</filter>
		<filter id="filter1_d" width="73.242" height="68.676" x="12.899" y="6" color-interpolation-filters="sRGB" filterUnits="userSpaceOnUse">
			<feFlood flood-opacity="0" result="BackgroundImageFix" />
			<feColorMatrix in="SourceAlpha" result="hardAlpha" values="0 0 0 0 0 0 0 0 0 0 0 0 0 0 0 0 0 0 127 0" />
			<feOffset dx="1.09" dy="3.634" />
			<feGaussianBlur stdDeviation="1.726" />
			<feComposite in2="hardAlpha" operator="out" />
			<feColorMatrix values="0 0 0 0 0 0 0 0 0 0 0 0 0 0 0 0 0 0 0.25 0" />
			<feBlend in2="BackgroundImageFix" result="effect1_dropShadow" />
			<feBlend in="SourceGraphic" in2="effect1_dropShadow" result="shape" />
		</filter>
		<filter id="filter2_f" width="5.664" height="6.371" x="37.021" y="49.547" color-interpolation-filters="sRGB" filterUnits="userSpaceOnUse">
			<feFlood flood-opacity="0" result="BackgroundImageFix" />
			<feBlend in="SourceGraphic" in2="BackgroundImageFix" result="shape" />
			<feGaussianBlur result="effect1_foregroundBlur" stdDeviation=".182" />
		</filter>
		<filter id="filter3_f" width="6.317" height="7.275" x="49.476" y="42.758" color-interpolation-filters="sRGB" filterUnits="userSpaceOnUse">
			<feFlood flood-opacity="0" result="BackgroundImageFix" />
			<feBlend in="SourceGraphic" in2="BackgroundImageFix" result="shape" />
			<feGaussianBlur result="effect1_foregroundBlur" stdDeviation=".182" />
		</filter>
		<filter id="filter4_f" width="7.624" height="7.624" x="39.364" y="46.537" color-interpolation-filters="sRGB" filterUnits="userSpaceOnUse">
			<feFlood flood-opacity="0" result="BackgroundImageFix" />
			<feBlend in="SourceGraphic" in2="BackgroundImageFix" result="shape" />
			<feGaussianBlur result="effect1_foregroundBlur" stdDeviation=".182" />
		</filter>
		<filter id="filter5_f" width="4.744" height="5.846" x="52.915" y="41.324" color-interpolation-filters="sRGB" filterUnits="userSpaceOnUse">
			<feFlood flood-opacity="0" result="BackgroundImageFix" />
			<feBlend in="SourceGraphic" in2="BackgroundImageFix" result="shape" />
			<feGaussianBlur result="effect1_foregroundBlur" stdDeviation=".14" />
		</filter>
		<filter id="filter6_f" width="4.739" height="4.991" x="59.756" y="36.262" color-interpolation-filters="sRGB" filterUnits="userSpaceOnUse">
			<feFlood flood-opacity="0" result="BackgroundImageFix" />
			<feBlend in="SourceGraphic" in2="BackgroundImageFix" result="shape" />
			<feGaussianBlur result="effect1_foregroundBlur" stdDeviation=".182" />
		</filter>
		<filter id="filter7_f" width="7.537" height="7.537" x="41.648" y="44.479" color-interpolation-filters="sRGB" filterUnits="userSpaceOnUse">
			<feFlood flood-opacity="0" result="BackgroundImageFix" />
			<feBlend in="SourceGraphic" in2="BackgroundImageFix" result="shape" />
			<feGaussianBlur result="effect1_foregroundBlur" stdDeviation=".182" />
		</filter>
		<filter id="filter8_f" width="7.747" height="7.747" x="54.187" y="37.913" color-interpolation-filters="sRGB" filterUnits="userSpaceOnUse">
			<feFlood flood-opacity="0" result="BackgroundImageFix" />
			<feBlend in="SourceGraphic" in2="BackgroundImageFix" result="shape" />
			<feGaussianBlur result="effect1_foregroundBlur" stdDeviation=".182" />
		</filter>
		<filter id="filter9_f" width="7.635" height="6.133" x="59.674" y="27.474" color-interpolation-filters="sRGB" filterUnits="userSpaceOnUse">
			<feFlood flood-opacity="0" result="BackgroundImageFix" />
			<feBlend in="SourceGraphic" in2="BackgroundImageFix" result="shape" />
			<feGaussianBlur result="effect1_foregroundBlur" stdDeviation=".182" />
		</filter>
		<radialGradient id="paint0_radial" cx="0" cy="0" r="1" gradientTransform="rotate(95.8 7.773 42.257) scale(27.3224 29.6804)" gradientUnits="userSpaceOnUse">
			<stop stop-color="#FF6371" />
			<stop offset="1" stop-color="#F94051" />
		</radialGradient>
		<radialGradient id="paint1_radial" cx="0" cy="0" r="1" gradientTransform="rotate(148.113 22.321 29.174) scale(23.2159 9.67094)" gradientUnits="userSpaceOnUse">
			<stop stop-color="#FFBABF" />
			<stop offset="1" stop-color="#FF5A67" />
		</radialGradient>
		<linearGradient id="paint2_linear" x1="64.497" x2="23.8" y1="11.723" y2="57.053" gradientUnits="userSpaceOnUse">
			<stop stop-color="#FF8C95" />
			<stop offset="1" stop-color="#FF8C95" stop-opacity=".29" />
		</linearGradient>
		<linearGradient id="paint3_linear" x1="212.674" x2="212.674" y1="13.132" y2="80.557" gradientUnits="userSpaceOnUse">
			<stop stop-color="#C147EC" />
			<stop offset="1" stop-color="#0028FB" />
		</linearGradient>
	</defs>
</svg>
